<svg id="圖層_1" data-name="圖層 1" xmlns="http://www.w3.org/2000/svg" xmlns:xlink="http://www.w3.org/1999/xlink" viewBox="0 0 50 50"><defs><style>.cls-1{fill:url(#linear-gradient);}.cls-2{fill:#fff;}</style><linearGradient id="linear-gradient" x1="40.97" y1="4.84" x2="10.05" y2="43.87" gradientUnits="userSpaceOnUse"><stop offset="0" stop-color="#49489c"/><stop offset="0.22" stop-color="#84479a"/><stop offset="0.35" stop-color="#a54699"/><stop offset="0.41" stop-color="#a94392"/><stop offset="0.48" stop-color="#b33c80"/><stop offset="0.57" stop-color="#c33161"/><stop offset="0.66" stop-color="#d6233e"/><stop offset="0.98" stop-color="#f9a325"/></linearGradient></defs><title>community_icon_05</title><path class="cls-1" d="M50,25a25,25,0,1,1-2.2-10.27A25,25,0,0,1,50,25Z"/><path class="cls-2" d="M33.06,39H16.94a6,6,0,0,1-6.06-5.82V16.84A6,6,0,0,1,16.94,11H33.06a6,6,0,0,1,6.06,5.82V33.16A6,6,0,0,1,33.06,39ZM16.94,13.42a3.53,3.53,0,0,0-3.62,3.42V33.16a3.53,3.53,0,0,0,3.62,3.42H33.06a3.53,3.53,0,0,0,3.62-3.42V16.84a3.53,3.53,0,0,0-3.62-3.42Z"/><path class="cls-2" d="M25,32.25A7.26,7.26,0,1,1,32.38,25,7.33,7.33,0,0,1,25,32.25Zm0-12.11A4.86,4.86,0,1,0,29.94,25,4.91,4.91,0,0,0,25,20.14Z"/><ellipse class="cls-2" cx="32.92" cy="17.38" rx="1.73" ry="1.7"/></svg>