<svg id="圖層_1" data-name="圖層 1" xmlns="http://www.w3.org/2000/svg" xmlns:xlink="http://www.w3.org/1999/xlink" viewBox="0 0 50 50"><defs><style>.cls-1{fill:url(#未命名漸層_4);}.cls-2{fill:#fff;fill-rule:evenodd;}</style><radialGradient id="未命名漸層_4" cx="39.98" cy="11.03" r="25.81" gradientTransform="translate(-13.73 14.32) scale(0.97 0.97)" gradientUnits="userSpaceOnUse"><stop offset="0.1" stop-color="#b81c22"/><stop offset="0.5" stop-color="#e60012"/><stop offset="0.9" stop-color="#e60012"/></radialGradient></defs><title>community_icon_06</title><path class="cls-1" d="M50,25a25,25,0,1,1-2.2-10.27A25,25,0,0,1,50,25Z"/><path class="cls-2" d="M36.52,26.12a5.08,5.08,0,0,0-3.83-3.31s-1-.13-.42-1.09c0,0,1.39-2.85-1.35-4a8.46,8.46,0,0,0-5.39.92s-1.94,1.09-1-1.3c0,0,.46-3.1-2.28-3.35-2.32-.21-7.67,1.55-12.68,9.67,0,0-3.67,6.58,3.79,10.51,0,0,6.24,3.69,15,1.09C28.39,35.25,37.32,32.32,36.52,26.12ZM21.44,34.33c-6.29,0-9.7-2.73-9.7-6.09s4.94-6.6,10.3-6.6,9.1,2.29,9.1,5.65S26.8,34.33,21.44,34.33Z"/><path class="cls-2" d="M20.75,24a5.21,5.21,0,0,0-5.18,4.52c-.38,3,1.83,4.52,5.18,4.4a4.93,4.93,0,0,0,5-4.46C25.93,25.5,23.51,24,20.75,24Zm-1.86,7.15a1.59,1.59,0,0,1-1.69-1.53A1.93,1.93,0,0,1,19,27.92a1.49,1.49,0,0,1,1.72,1.44A1.92,1.92,0,0,1,18.88,31.15Zm2.91-2.66a.66.66,0,1,1,.66-.66A.66.66,0,0,1,21.79,28.49Z"/><path class="cls-2" d="M30.93,13a4,4,0,0,1,.46-.12l.51-.09c-.54.08-.11,0,0,0l.41,0a7.78,7.78,0,0,1,.8,0l.44,0c-.42-.05-.14,0,0,0l.31.06a7.57,7.57,0,0,1,1,.28l.25.1c-.34-.14,0,0,0,0s.41.2.6.31.35.21.52.33l.26.18c-.25-.18,0,0,.08.06a7.89,7.89,0,0,1,1,1s.25.31,0,0l.17.23c.11.15.2.31.29.47s.17.31.24.47-.11-.28,0,0c0,.1.08.21.11.31a6.35,6.35,0,0,1,.23.92c0,.08,0,.15,0,.23-.06-.42,0-.15,0-.05s0,.34,0,.51a7.45,7.45,0,0,1,0,.81c0,.13,0,.25,0,.37.07-.51,0,0,0,.11a7.82,7.82,0,0,1-.26,1c-.06.2-.28.68,0,.1A1.33,1.33,0,0,0,40.61,22a8.64,8.64,0,0,0,.42-5.8,8.87,8.87,0,0,0-7.84-6,7.48,7.48,0,0,0-3,.31A1.32,1.32,0,1,0,30.93,13Z"/><path class="cls-2" d="M31.64,16.65l.26-.06c.28-.05-.16,0,.09,0l.42,0a2.37,2.37,0,0,1,1.53.5l.21.2s.19.23.1.12a2.5,2.5,0,0,1,.15.23l.08.16v0a3,3,0,0,1,.13.48c.05.26,0-.18,0,.07,0,.1,0,.2,0,.29s0,.27,0,.4,0,.12,0,.18c0-.28,0,0,0,0a2.62,2.62,0,0,1-.07.3.89.89,0,0,0,.62,1.08A.9.9,0,0,0,36.25,20a4.08,4.08,0,0,0-1.06-4.18,4.39,4.39,0,0,0-4-.87.88.88,0,0,0,.47,1.7Z"/></svg>