<svg id="圖層_1" data-name="圖層 1" xmlns="http://www.w3.org/2000/svg" xmlns:xlink="http://www.w3.org/1999/xlink" viewBox="0 0 50 50"><defs><style>.cls-1{fill:url(#未命名漸層_3);}.cls-2{fill:#fff;}.cls-3{fill:#03b00f;}</style><radialGradient id="未命名漸層_3" cx="56.6" cy="-2.11" r="37.04" gradientTransform="translate(-15.29 14.32) scale(0.97 0.97)" gradientUnits="userSpaceOnUse"><stop offset="0" stop-color="#0fd71f"/><stop offset="0.99" stop-color="#03b00f"/></radialGradient></defs><title>community_icon_07</title><path class="cls-1" d="M50,25a25,25,0,1,1-2.2-10.27A25,25,0,0,1,50,25Z"/><path class="cls-2" d="M20.49,31.14a20.8,20.8,0,0,1-4.23-.6L12,32.64,13.25,29c-3-2.1-4.83-4.8-4.83-8.1,0-5.71,5.44-10.2,12.07-10.2,5.94,0,11.13,3.59,12.18,8.42a10.52,10.52,0,0,0-1.16-.07c-5.73,0-10.26,4.25-10.26,9.49a8.88,8.88,0,0,0,.37,2.51C21.24,31.12,20.86,31.14,20.49,31.14Z"/><path class="cls-3" d="M16.56,15.83a1.69,1.69,0,0,0-1.82,1.5,1.7,1.7,0,0,0,1.82,1.5,1.5,1.5,0,1,0,0-3Z"/><path class="cls-2" d="M38.29,35.34l.91,3-3.31-1.8a15.24,15.24,0,0,1-3.62.6c-5.74,0-10.27-3.9-10.27-8.71s4.52-8.71,10.27-8.71c5.42,0,10.25,3.91,10.25,8.71C42.52,31.14,40.71,33.54,38.29,35.34Z"/><path class="cls-3" d="M28.94,24.53a1.2,1.2,0,1,0,0,2.4,1.37,1.37,0,0,0,1.51-1.2A1.38,1.38,0,0,0,28.94,24.53Z"/><path class="cls-3" d="M35.58,24.53a1.2,1.2,0,0,0,0,2.4,1.38,1.38,0,0,0,1.51-1.2A1.38,1.38,0,0,0,35.58,24.53Z"/><path class="cls-3" d="M25,18.83a1.5,1.5,0,1,0,0-3,1.68,1.68,0,0,0-1.81,1.5A1.69,1.69,0,0,0,25,18.83Z"/></svg>