<svg id="圖層_1" data-name="圖層 1" xmlns="http://www.w3.org/2000/svg" viewBox="0 0 50 50"><defs><style>.cls-1{fill:#613791;}.cls-2{fill:#fff;}</style></defs><title>community_icon_03</title><path class="cls-1" d="M50,25a25,25,0,1,1-2.2-10.27A25,25,0,0,1,50,25Z"/><path class="cls-2" d="M19.29,38.13v-3H13.1c0-.13,0-.23,0-.32q0-8.56,0-17.13a1.6,1.6,0,0,1,.08-.49c.46-1.38.92-2.75,1.38-4.13a.29.29,0,0,1,.33-.24h23c0,.12,0,.22,0,.32q0,7.38,0,14.76a.63.63,0,0,1-.21.49l-6.57,6.53a.63.63,0,0,1-.49.2h-4a.78.78,0,0,0-.62.25c-.88.89-1.77,1.77-2.66,2.65a.55.55,0,0,1-.33.17H19.39ZM16.93,15.06V31.27h5.43v3.07l.18-.17,2.75-2.73a.57.57,0,0,1,.44-.18h5.7a.65.65,0,0,0,.41-.17c1.18-1.16,2.35-2.33,3.54-3.5a.56.56,0,0,0,.18-.44q0-5.9,0-11.8v-.28Z"/><path class="cls-2" d="M25.46,19.73v6.85h-2.3V19.73Z"/><path class="cls-2" d="M31.63,26.59H29.38V19.73h2.26Z"/></svg>