<svg id="圖層_1" data-name="圖層 1" xmlns="http://www.w3.org/2000/svg" viewBox="0 0 50 50"><defs><style>.cls-1{fill:#3ace01;}.cls-2{fill:#fff;}</style></defs><title>community_icon_04</title><path class="cls-1" d="M50,25a25,25,0,1,1-2.2-10.27A25,25,0,0,1,50,25Z"/><path class="cls-2" d="M25.11,9.9c9.23,0,16.72,6,16.72,13.31a11.33,11.33,0,0,1-2.5,7,3.45,3.45,0,0,1-.31.38h0a14.45,14.45,0,0,1-1.82,1.8C32.57,36.65,25,41.7,24,40.92s1.44-4-1.23-4.55l-.56-.07h0C14.34,35.2,8.39,29.75,8.39,23.21c0-7.35,7.49-13.31,16.72-13.31Z"/><path class="cls-1" d="M15.41,27.45h3.37a.87.87,0,0,0,.87-.87v-.07a.87.87,0,0,0-.87-.87H16.35V20.16a.87.87,0,0,0-.87-.87h-.07a.87.87,0,0,0-.87.87v6.43A.87.87,0,0,0,15.41,27.45Zm20.89-4v-.07a.87.87,0,0,0-.87-.87H33V21.11h2.43a.87.87,0,0,0,.87-.87v-.07a.87.87,0,0,0-.87-.87H32.06a.87.87,0,0,0-.87.87V26.6a.87.87,0,0,0,.87.87h3.37a.87.87,0,0,0,.87-.87v-.07a.87.87,0,0,0-.87-.87H33V24.29h2.43a.87.87,0,0,0,.87-.87Zm-6.48,3.77h0a.86.86,0,0,0,.25-.61V20.16a.87.87,0,0,0-.87-.87h-.07a.87.87,0,0,0-.87.87v3.77l-3.15-4.2a.87.87,0,0,0-.76-.44h-.07a.87.87,0,0,0-.87.87v6.43a.87.87,0,0,0,.87.87h.07a.87.87,0,0,0,.87-.87V22.74L28.39,27l.06.09h0a.73.73,0,0,0,.34.25.87.87,0,0,0,.33.07h.07a.87.87,0,0,0,.41-.1.61.61,0,0,0,.21-.16Zm-8.59.26h.07a.87.87,0,0,0,.87-.87V20.16a.87.87,0,0,0-.87-.87h-.07a.87.87,0,0,0-.87.87v6.43a.87.87,0,0,0,.87.87Z"/></svg>