<svg id="圖層_1" data-name="圖層 1" xmlns="http://www.w3.org/2000/svg" viewBox="0 0 36 36"><defs><style>.cls-1{fill:#fff;}.cls-2{fill:#3c5b9a;fill-rule:evenodd;}</style></defs><title>openID_icon_01</title><circle class="cls-1" cx="18" cy="18" r="18"/><path class="cls-2" d="M14.87,24c0-1.87,0-3.74,0-5.61,0-.32-.09-.41-.4-.4-.58,0-1.17,0-1.75,0-.24,0-.32-.06-.32-.31q0-1.75,0-3.5c0-.22.07-.3.29-.29.6,0,1.2,0,1.79,0,.35,0,.42-.11.41-.43q0-1.33,0-2.67a5.12,5.12,0,0,1,1-3,4.15,4.15,0,0,1,3.32-1.69c1.38-.06,2.76,0,4.14,0,.19,0,.25.07.25.25q0,1.77,0,3.54c0,.21-.07.27-.27.27h-2a1.31,1.31,0,0,0-1.47,1.33c0,.7,0,1.41,0,2.11,0,.25.14.23.31.23,1,0,2,0,3,0,.3,0,.39.06.36.37-.13,1.17-.24,2.35-.34,3.53,0,.27-.14.32-.38.31-.8,0-1.59,0-2.39,0-.57,0-.52-.08-.52.5,0,3.66,0,7.33,0,11,0,.39-.1.48-.48.48q-2.05,0-4.1,0c-.39,0-.45-.12-.45-.47C14.87,27.73,14.87,25.88,14.87,24Z"/></svg>