<svg id="圖層_1" data-name="圖層 1" xmlns="http://www.w3.org/2000/svg" viewBox="0 0 36 36"><defs><style>.cls-1{fill:#fff;}.cls-2{fill:#4285f4;}.cls-3{fill:#34a853;}.cls-4{fill:#fbbc05;}.cls-5{fill:#eb4335;}</style></defs><title>openID_icon_02</title><circle class="cls-1" cx="18" cy="18" r="18"/><path class="cls-2" d="M30,18.27a10.51,10.51,0,0,0-.25-2.45h-11v4.45H25.2a5.89,5.89,0,0,1-2.4,3.89l0,.15,3.48,2.76.24,0A11.87,11.87,0,0,0,30,18.27"/><path class="cls-3" d="M18.73,30a11,11,0,0,0,7.77-2.91l-3.7-2.93a6.84,6.84,0,0,1-4.07,1.2,7.08,7.08,0,0,1-6.68-5h-.14L8.3,23.25l0,.13A11.7,11.7,0,0,0,18.73,30"/><path class="cls-4" d="M12.06,20.37A7.54,7.54,0,0,1,11.67,18,7.92,7.92,0,0,1,12,15.63v-.16L8.37,12.55l-.12.06a12.22,12.22,0,0,0,0,10.77l3.81-3"/><path class="cls-5" d="M18.73,10.64a6.43,6.43,0,0,1,4.54,1.79l3.31-3.31A11.14,11.14,0,0,0,18.73,6,11.7,11.7,0,0,0,8.25,12.61l3.79,3a7.11,7.11,0,0,1,6.69-5"/></svg>