<?xml version="1.0" encoding="utf-8"?>
<!-- Generator: Adobe Illustrator 21.1.0, SVG Export Plug-In . SVG Version: 6.00 Build 0)  -->
<svg version="1.1"  xmlns="http://www.w3.org/2000/svg" xmlns:xlink="http://www.w3.org/1999/xlink" x="0px" y="0px"
	 viewBox="0 0 810 80" style="enable-background:new 0 0 810 80;" xml:space="preserve">
<style type="text/css">
	.st0{fill:#0098D8;}
	.st1{fill:#FFE100;}
	.st2{fill:#FFFFFF;}
</style>
<g>
		<rect y="38" class="l1" x="0" width="200" height="4"/>
    <rect y="38" class="l2" x="200" width="200" height="4"/>
    <rect y="38" class="l3" x="400" width="200" height="4"/>
    <rect y="38" class="l4" x="600" width="200" height="4"/>
	<circle class="c1" cx="205" cy="40" r="40"/>
	<circle class="c2" cx="405" cy="40" r="40"/>
	<circle class="c3" cx="605" cy="40" r="40"/>
	<g>
		<path class="t1" d="M207.5,56h-4.2V29.1c-1,1-2.3,1.9-4,2.9s-3.1,1.7-4.4,2.2v-4.1c2.4-1.1,4.4-2.5,6.2-4s3-3.1,3.8-4.6h2.7V56z"
			/>
	</g>
	<g>
		<path class="t2" d="M415.8,51.9V56h-22.7c0-1,0.1-2,0.5-2.9c0.6-1.5,1.5-3.1,2.8-4.6s3.1-3.2,5.5-5.2c3.7-3.1,6.3-5.5,7.6-7.3
			s2-3.5,2-5.1c0-1.7-0.6-3.1-1.8-4.2S406.9,25,405,25c-2,0-3.7,0.6-4.9,1.8s-1.8,2.9-1.9,5.1l-4.3-0.4c0.3-3.2,1.4-5.7,3.4-7.4
			s4.5-2.5,7.8-2.5c3.3,0,5.9,0.9,7.8,2.7s2.9,4.1,2.9,6.8c0,1.4-0.3,2.7-0.8,4.1s-1.5,2.7-2.8,4.2s-3.5,3.5-6.5,6
			c-2.5,2.1-4.2,3.6-4.9,4.3s-1.3,1.5-1.8,2.3H415.8z"/>
	</g>
	<g>
		<path class="t3" d="M593.7,46.9l4.2-0.6c0.5,2.4,1.3,4.1,2.5,5.2s2.6,1.6,4.3,1.6c2,0,3.7-0.7,5-2.1s2.1-3.1,2.1-5.1
			c0-1.9-0.6-3.5-1.9-4.8s-2.9-1.9-4.8-1.9c-0.8,0-1.8,0.2-3,0.5l0.5-3.7c0.3,0,0.5,0,0.7,0c1.8,0,3.4-0.5,4.9-1.4s2.2-2.4,2.2-4.3
			c0-1.5-0.5-2.8-1.6-3.8s-2.4-1.5-4.1-1.5c-1.6,0-3,0.5-4.1,1.5s-1.8,2.6-2.1,4.6l-4.2-0.8c0.5-2.8,1.7-5,3.5-6.6s4.1-2.3,6.8-2.3
			c1.9,0,3.6,0.4,5.2,1.2s2.8,1.9,3.6,3.3s1.3,2.9,1.3,4.4c0,1.5-0.4,2.8-1.2,4.1s-2,2.2-3.5,2.9c2,0.5,3.6,1.4,4.7,2.9
			s1.7,3.3,1.7,5.5c0,3-1.1,5.5-3.3,7.6s-5,3.1-8.3,3.1c-3,0-5.5-0.9-7.5-2.7S593.9,49.8,593.7,46.9z"/>
	</g>

</g>
</svg>
