<svg id="圖層_1" data-name="圖層 1" xmlns="http://www.w3.org/2000/svg" viewBox="0 0 50 50"><defs><style>.cls-1{fill:#ff0;opacity:0;}.cls-2{fill:#fff;}</style></defs><title>left_icon_01</title><rect class="cls-1" width="50" height="50"/><path class="cls-2" d="M32.7,16A7.83,7.83,0,0,1,36,19.73a20.91,20.91,0,0,1,.92,2.58,25,25,0,0,1,.66,2.87A27.9,27.9,0,0,1,37.91,28c.06.94.1,1.87.09,2.79a5.11,5.11,0,0,1-.48,2,3.82,3.82,0,0,1-5.31,1.74h0a4.6,4.6,0,0,1-1.44-1.22,9.2,9.2,0,0,1-.87-1.42,6.46,6.46,0,0,0-2-2.38l0,0a5.64,5.64,0,0,0-5.8,0h0a6.53,6.53,0,0,0-2,2.38,9.64,9.64,0,0,1-.86,1.42,4.82,4.82,0,0,1-1.43,1.22l-.07,0C14.89,36,12.07,33.82,12,30.79c0-.92,0-1.85.07-2.79s.19-1.88.35-2.83a28.61,28.61,0,0,1,.66-2.87A21,21,0,0,1,14,19.73,7.87,7.87,0,0,1,17.28,16c2-1.17,3.87-1,5.8-.88.63.06,1.26.11,1.91.11s1.28,0,1.9-.11c1.94-.16,3.78-.3,5.81.88ZM23.5,25.69h0a.6.6,0,0,1-.6-.6.59.59,0,0,1,.6-.59h3a.59.59,0,0,1,.6.59.6.6,0,0,1-.6.6Zm0-5.49h0a.59.59,0,0,1-.6-.59.6.6,0,0,1,.6-.6h3a.6.6,0,0,1,.6.6.59.59,0,0,1-.6.59Zm-4.08-.59h0a.6.6,0,1,1,1.2,0v2.14h2.15a.6.6,0,0,1,.6.6.61.61,0,0,1-.6.6H20.62v2.14a.6.6,0,0,1-1.2,0V23H17.27a.61.61,0,0,1-.6-.6.6.6,0,0,1,.6-.6h2.15V19.61Zm10.75,0h0a1,1,0,0,1,1,1,1,1,0,1,1-1-1Zm-.74,2.75h0a1,1,0,1,1-1-1,1,1,0,0,1,1,1Zm.74.74h0a1,1,0,1,1-1,1,1,1,0,0,1,1-1Zm2.75-.74h0a1,1,0,0,1-2,0,1,1,0,1,1,2,0Zm-1.21-4.66h0a7.58,7.58,0,0,0-4.65-.6c-.67,0-1.35.12-2.06.12s-1.39-.07-2.06-.12a7.54,7.54,0,0,0-4.64.6,5.84,5.84,0,0,0-2.45,2.82A19.53,19.53,0,0,0,15,22.85a23.57,23.57,0,0,0-.61,2.67c-.16.87-.26,1.77-.33,2.64S14,29.93,14,30.72v0a2.85,2.85,0,0,0,.28,1.15c.72,1.49,2.43,1.4,3.38.17a6.33,6.33,0,0,0,.68-1.1,8.27,8.27,0,0,1,2.61-3.09h0a7.74,7.74,0,0,1,8,0l.06,0A8.32,8.32,0,0,1,31.65,31a6.77,6.77,0,0,0,.69,1.1c.94,1.22,2.67,1.32,3.38-.17A2.76,2.76,0,0,0,36,30.75c0-.81,0-1.68-.08-2.6a25.74,25.74,0,0,0-.33-2.64A25.24,25.24,0,0,0,35,22.85a19.65,19.65,0,0,0-.82-2.34,5.94,5.94,0,0,0-2.44-2.82Z"/></svg>