<svg id="圖層_1" data-name="圖層 1" xmlns="http://www.w3.org/2000/svg" viewBox="0 0 50 50"><defs><style>.cls-1{fill:#ff0;opacity:0;}.cls-2{fill:#fff;}</style></defs><title>left_icon_04</title><rect class="cls-1" width="50" height="50"/><path class="cls-2" d="M25,15a5.7,5.7,0,0,1,5.71,4.6,4.47,4.47,0,0,1,1.36-.2,4.72,4.72,0,0,1,3.25,1.28,4.12,4.12,0,0,1,.1,6l1.1,1a4.63,4.63,0,0,1,1.09,1.52A4.28,4.28,0,0,1,38,31v1.29a1.59,1.59,0,0,1-.32,1,1.35,1.35,0,0,1-1,.56H35.54v.36a.81.81,0,0,1-.84.78H15.33a.82.82,0,0,1-.86-.78v-.36H13.3a1.38,1.38,0,0,1-1-.56,1.66,1.66,0,0,1-.32-1V31a4.37,4.37,0,0,1,.38-1.81h0a8.42,8.42,0,0,1,2.19-2.56,4.14,4.14,0,0,1,.11-6,4.75,4.75,0,0,1,3.26-1.28,4.53,4.53,0,0,1,1.36.2A5.69,5.69,0,0,1,25,15Zm0,18.42h2.61v-3.6a.48.48,0,0,1,.5-.47.49.49,0,0,1,.51.47v2.11h2.17a.38.38,0,0,0,0-.2V30c0-2.27-1.61-3.33-3.17-4.81a6,6,0,0,1-2.67.62,6,6,0,0,1-2.67-.62c-1.57,1.48-3.17,2.54-3.17,4.81v1.68a.53.53,0,0,0,0,.2h2.17V29.82a.49.49,0,0,1,.52-.47.48.48,0,0,1,.5.47c0,1.2,0,2.4,0,3.6Zm0-9.14h0a4,4,0,0,0,4.1-3.85,4.11,4.11,0,0,0-8.2,0A4,4,0,0,0,25,24.28Zm-8.84,9.14h2.44a1.57,1.57,0,0,1-.75-.55,1.87,1.87,0,0,1-.38-1.14V30a5.6,5.6,0,0,1,.36-2,4.81,4.81,0,0,1-1.9-.42,8,8,0,0,0-2,2.21h0A3.05,3.05,0,0,0,13.69,31v1.23h1.46v-1.4a.5.5,0,0,1,.51-.48.5.5,0,0,1,.5.48v2.55ZM19.3,21.3h0a3,3,0,0,0-.49-.19,3.15,3.15,0,0,0-.88-.12,3,3,0,0,0-2.06.8A2.7,2.7,0,0,0,15,23.72a2.61,2.61,0,0,0,.85,1.93,3,3,0,0,0,2.06.8,2.85,2.85,0,0,0,.94-.14,27.2,27.2,0,0,1,2.09-2,5.53,5.53,0,0,1-1.66-3ZM33.84,33.42h0V30.87a.49.49,0,0,1,.5-.48.5.5,0,0,1,.51.48v1.4h1.47V31a3,3,0,0,0-.25-1.21,2.9,2.9,0,0,0-.74-1l-1.27-1.2a4.76,4.76,0,0,1-1.89.42,5.47,5.47,0,0,1,.37,2v1.68a1.87,1.87,0,0,1-.38,1.14,1.62,1.62,0,0,1-.76.55ZM30.71,21.3h0a5.2,5.2,0,0,1-1.67,3,25,25,0,0,1,2.1,2,1.47,1.47,0,0,0,.35.1,3.21,3.21,0,0,0,.59,0,3,3,0,0,0,2.05-.8A2.59,2.59,0,0,0,35,23.72a2.68,2.68,0,0,0-.85-1.94,3,3,0,0,0-2.05-.8,3.2,3.2,0,0,0-.89.12,2.67,2.67,0,0,0-.48.19Z"/></svg>