<svg id="圖層_1" data-name="圖層 1" xmlns="http://www.w3.org/2000/svg" viewBox="0 0 50 50"><defs><style>.cls-1{fill:#ff0;opacity:0;}.cls-2{fill:#fff;}</style></defs><title>left_icon_03</title><rect class="cls-1" width="50" height="50"/><path class="cls-2" d="M31.35,28.41V15a1,1,0,0,0-1-1H13a1,1,0,0,0-1,1V28.41a1,1,0,0,0,1,1H30.35a1,1,0,0,0,1-1Zm-2-1H14V16H29.35V27.42ZM37,20.6h0a1,1,0,0,0-1,1V34H19.65a1,1,0,1,0,0,2H37a1,1,0,0,0,1-1V21.6a1,1,0,0,0-1-1ZM33.68,32.71h0a1,1,0,0,0,1-1V18.29a1,1,0,1,0-2,0V30.72H16.32a1,1,0,0,0-1,1,1,1,0,0,0,1,1H33.68Z"/></svg>