<svg id="圖層_1" data-name="圖層 1" xmlns="http://www.w3.org/2000/svg" viewBox="0 0 50 50"><defs><style>.cls-1{fill:#ff0;opacity:0;}.cls-2{fill:#fff;}</style></defs><title>left_icon_02</title><rect class="cls-1" width="50" height="50"/><path class="cls-2" d="M24.29,35.72l-9.92-9.35A7.45,7.45,0,0,1,12.24,23a6.2,6.2,0,0,1,.13-3.79,7.57,7.57,0,0,1,2-3,8.43,8.43,0,0,1,3.24-1.85,7.71,7.71,0,0,1,4.15-.11A8.93,8.93,0,0,1,25,15.84a8.93,8.93,0,0,1,3.25-1.61,7.74,7.74,0,0,1,4.14.11,8.11,8.11,0,0,1,3.24,1.85,7.44,7.44,0,0,1,2,3h0A6.2,6.2,0,0,1,37.76,23a7.47,7.47,0,0,1-2.14,3.39l0,0L25.7,35.72a1,1,0,0,1-1.41,0Zm1.89-18.36h0l-3.18,3a.63.63,0,0,1-.85,0,.52.52,0,0,1,0-.79l2-1.91,0,0a6.63,6.63,0,0,0-2.88-1.59,5.67,5.67,0,0,0-3,.08,6.37,6.37,0,0,0-2.44,1.4,5.7,5.7,0,0,0-1.5,2.25,4.31,4.31,0,0,0-.11,2.72A5.71,5.71,0,0,0,15.79,25L25,33.74l9.17-8.65,0,0a5.72,5.72,0,0,0,1.63-2.55,4.29,4.29,0,0,0-.11-2.71h0a5.76,5.76,0,0,0-1.52-2.25,6.19,6.19,0,0,0-2.44-1.41,5.61,5.61,0,0,0-3-.07,6.63,6.63,0,0,0-2.58,1.3Z"/></svg>