<svg id="exlogo" data-name="exlogo" xmlns="http://www.w3.org/2000/svg" viewBox="0 0 172 38"><defs><style>.cls-1{fill:#fff;}</style></defs><title>logo</title><path class="cls-1" d="M48.82,38H40l-3.61-5.78L32.75,38H24l8-12.89L24.67,13.39h8.88L36.43,18l2.84-4.58h8.85L40.8,25.11Z"/><path class="cls-1" d="M63,21.14H58.43V38H49.67V21.14H45.14L58.43,0V13.39H63Z"/><path class="cls-1" d="M78.3,21.14H73.77V38H64.92V21.15l4.84-7.76H78.3Z"/><path class="cls-1" d="M101,38H86.69a6.3,6.3,0,0,1-4.54-1.82,5.84,5.84,0,0,1-1.88-4.37V19.57a5.85,5.85,0,0,1,1.88-4.37,6.3,6.3,0,0,1,4.54-1.81H99.4a6.3,6.3,0,0,1,4.52,1.83,5.84,5.84,0,0,1,1.9,4.35v9.21H97V21.14H89.11v9.11h16.71Z"/><path class="cls-1" d="M167.15,38H152.87a6.3,6.3,0,0,1-4.54-1.82,5.84,5.84,0,0,1-1.88-4.37V19.57a5.85,5.85,0,0,1,1.88-4.37,6.3,6.3,0,0,1,4.54-1.81h12.71a6.3,6.3,0,0,1,4.52,1.83,5.84,5.84,0,0,1,1.9,4.35v9.21h-8.85V21.14h-7.86v9.11H172Z"/><path class="cls-1" d="M20.71,38H6.42a6.3,6.3,0,0,1-4.54-1.82A5.84,5.84,0,0,1,0,31.82V19.57a5.85,5.85,0,0,1,1.88-4.37,6.3,6.3,0,0,1,4.54-1.81H19.13a6.3,6.3,0,0,1,4.52,1.83,5.84,5.84,0,0,1,1.9,4.35v9.21H16.71V21.14H8.85v9.11H25.55Z"/><path class="cls-1" d="M117.06,38h-8.78V13.39h8.78Z"/><path class="cls-1" d="M130.53,38h-8.85V21.14h-4.62l4.84-7.75h2.2a6.3,6.3,0,0,1,4.52,1.83,5.84,5.84,0,0,1,1.9,4.35Z"/><path class="cls-1" d="M144,38h-8.85V21.14h-4.62l4.84-7.75h2.2a6.3,6.3,0,0,1,4.52,1.83,5.84,5.84,0,0,1,1.9,4.35Z"/></svg>